<svg width="18" height="18" viewBox="0 0 18 18" fill="none" xmlns="http://www.w3.org/2000/svg">
<path id="icon-automations-outline" d="M13 0C12.7348 2.65169e-05 12.4805 0.105392 12.2929 0.292922C12.1054 0.480453 12 0.734792 12 1V2.42773L6 6.98438C5.99587 6.72188 5.8887 6.47154 5.70161 6.28738C5.51452 6.10321 5.26252 5.99999 5 6H1C0.734792 6.00003 0.480453 6.10539 0.292922 6.29292C0.105392 6.48045 2.65169e-05 6.73479 0 7V11C2.65169e-05 11.2652 0.105392 11.5195 0.292922 11.7071C0.480453 11.8946 0.734792 12 1 12H5C5.26521 12 5.51955 11.8946 5.70708 11.7071C5.89461 11.5195 5.99997 11.2652 6 11L12 15.5V17C12 17.2652 12.1054 17.5195 12.2929 17.7071C12.4805 17.8946 12.7348 18 13 18H17C17.2652 18 17.5195 17.8946 17.7071 17.7071C17.8946 17.5195 18 17.2652 18 17V13C18 12.7348 17.8946 12.4805 17.7071 12.2929C17.5195 12.1054 17.2652 12 17 12H13C12.7348 12 12.4805 12.1054 12.2929 12.2929C12.1054 12.4805 12 12.7348 12 13L6.66016 8.99609L12 4.93945V5C12 5.26521 12.1054 5.51955 12.2929 5.70708C12.4805 5.89461 12.7348 5.99997 13 6H17C17.2652 5.99997 17.5195 5.89461 17.7071 5.70708C17.8946 5.51955 18 5.26521 18 5V1C18 0.734792 17.8946 0.480453 17.7071 0.292922C17.5195 0.105392 17.2652 2.65169e-05 17 0H13ZM14 2H16V4H14V2ZM2 8H4V8.97852V10H2V8ZM14 14H16V16H14V14Z" fill="black"/>
</svg>
