<svg width="160" height="160" viewBox="0 0 160 160" fill="none" xmlns="http://www.w3.org/2000/svg">
<path d="M80.3125 0C36.3719 0 0 35.7469 0 79.6875C0 123.628 36.3719 160 80.3125 160C124.253 160 160 123.628 160 79.6875C160 35.7469 124.253 0 80.3125 0ZM80.3125 136.562C75.1437 136.562 70.9375 132.356 70.9375 127.188C70.9375 122.019 75.1437 117.812 80.3125 117.812C85.4781 117.812 89.6875 122.019 89.6875 127.188C89.6875 132.356 85.4781 136.562 80.3125 136.562ZM96.9281 78.9406C92.2531 82.375 89.6875 91.4469 89.6875 95.975V98.4375C89.6875 103.606 85.4781 107.812 80.3125 107.812C75.1437 107.812 70.9375 103.606 70.9375 98.4375V95.975C70.9375 85.4594 76.3687 70.7625 85.8469 63.8219C93.1281 58.475 89.3469 46.875 80.3125 46.875C75.1437 46.875 70.9375 51.0812 70.9375 56.25C70.9375 61.4188 66.7281 65.625 61.5625 65.625C56.3937 65.625 52.1875 61.4188 52.1875 56.25C52.1875 40.7406 64.8031 28.125 80.3125 28.125C95.8219 28.125 108.438 40.7406 108.438 56.25C108.438 65.1781 104.134 73.6594 96.9281 78.9406Z" fill="black"/>
</svg>
