<svg width="18" height="18" viewBox="0 0 18 18" fill="none" xmlns="http://www.w3.org/2000/svg">
<path id="icon-extensions-outline-2" d="M7.71429 0C6.30431 0 5.14286 1.16145 5.14286 2.57143H1.71429C0.777375 2.57143 0 3.3488 0 4.28571V9.42857H1.71429C2.1986 9.42857 2.57143 9.8014 2.57143 10.2857C2.57143 10.77 2.1986 11.1429 1.71429 11.1429H0V16.2857C0 17.2226 0.777375 18 1.71429 18H6.85714V16.2857C6.85714 15.8014 7.22997 15.4286 7.71429 15.4286C8.1986 15.4286 8.57143 15.8014 8.57143 16.2857V18H13.7143C14.6512 18 15.4286 17.2226 15.4286 16.2857V12.8571C16.8385 12.8571 18 11.6957 18 10.2857C18 8.87574 16.8385 7.71429 15.4286 7.71429V4.28571C15.4286 3.3488 14.6512 2.57143 13.7143 2.57143H10.2857C10.2857 1.16145 9.12426 0 7.71429 0ZM7.71429 1.71429C8.1986 1.71429 8.57143 2.08712 8.57143 2.57143V4.28571H13.7143V9.42857H15.4286C15.9129 9.42857 16.2857 9.8014 16.2857 10.2857C16.2857 10.77 15.9129 11.1429 15.4286 11.1429H13.7143V16.2857H10.2857C10.2857 14.8757 9.12426 13.7143 7.71429 13.7143C6.30431 13.7143 5.14286 14.8757 5.14286 16.2857H1.71429V12.8571C3.12426 12.8571 4.28571 11.6957 4.28571 10.2857C4.28571 8.87574 3.12426 7.71429 1.71429 7.71429V4.28571H6.85714V2.57143C6.85714 2.08712 7.22997 1.71429 7.71429 1.71429Z" fill="black"/>
</svg>
