<svg width="15" height="15" viewBox="0 0 15 15" fill="none" xmlns="http://www.w3.org/2000/svg">
<path d="M6.17248 0.103389C5.60442 1.2312 5.17039 2.41922 4.8761 3.64395C5.59041 3.80373 6.32108 3.89857 7.0598 3.92549V0C6.76033 0.0171973 6.46416 0.0516797 6.17248 0.103389Z" fill="#999999"/>
<path d="M10.3066 4.50616C9.53168 4.67878 8.74058 4.77912 7.94019 4.80605V7.05977H10.5739C10.551 6.19996 10.4615 5.34611 10.3066 4.50616Z" fill="#999999"/>
<path d="M8.82727 0.103359C8.53567 0.0516797 8.23957 0.0171973 7.94019 0V3.92526C8.67876 3.89862 9.40857 3.80479 10.1235 3.645C9.82913 2.41972 9.39483 1.23067 8.82727 0.103359Z" fill="#999999"/>
<path d="M7.94019 11.0747V15C8.23972 14.9828 8.53594 14.9483 8.82765 14.8966C9.37992 13.801 9.82342 12.6161 10.126 11.3555C9.41024 11.1954 8.67961 11.1014 7.94019 11.0747Z" fill="#999999"/>
<path d="M11.4547 7.94022C11.4313 8.87429 11.3335 9.80271 11.1625 10.7153C12.0379 10.975 12.88 11.3266 13.6844 11.7688C14.4656 10.6421 14.9204 9.32669 14.9999 7.94022H11.4547Z" fill="#999999"/>
<path d="M4.87402 11.3555C5.15853 12.5408 5.58494 13.7313 6.17234 14.8965C6.46405 14.9483 6.7603 14.9828 7.0598 15V11.0747C6.32041 11.1014 5.58975 11.1954 4.87402 11.3555Z" fill="#999999"/>
<path d="M4.69339 4.50531C4.53867 5.34487 4.44888 6.1987 4.42603 7.05979H7.05976V4.80651C6.25928 4.77935 5.46744 4.67781 4.69339 4.50531Z" fill="#999999"/>
<path d="M1.31555 3.23114C0.534346 4.35781 0.0795996 5.67327 0 7.05977H3.54533C3.56891 6.12371 3.66747 5.19558 3.83891 4.28372C2.96478 4.02462 2.11895 3.6725 1.31555 3.23114Z" fill="#999999"/>
<path d="M4.02222 11.5795C3.28921 11.8016 2.57185 12.0943 1.8667 12.4709C2.71968 13.4349 3.80586 14.1801 5.05994 14.6094C4.62063 13.6336 4.2732 12.6202 4.02222 11.5795Z" fill="#999999"/>
<path d="M1.86694 2.52884C2.5568 2.89692 3.27932 3.19496 4.02425 3.42034C4.2752 2.38074 4.62217 1.36646 5.06136 0.390137C3.86103 0.800703 2.7588 1.52094 1.86694 2.52884Z" fill="#999999"/>
<path d="M3.54518 7.94022H0C0.0795996 9.32669 0.534316 10.6421 1.31549 11.7688C2.11904 11.3271 2.96109 10.9753 3.83748 10.7153C3.66641 9.80271 3.56862 8.87429 3.54518 7.94022Z" fill="#999999"/>
<path d="M9.93848 0.390106C10.3773 1.36634 10.7242 2.38139 10.9752 3.42134C11.7248 3.1944 12.4417 2.89848 13.1334 2.52916C12.2781 1.56254 11.1906 0.818339 9.93848 0.390106Z" fill="#999999"/>
<path d="M10.9778 11.5795C10.7269 12.6198 10.3795 13.6331 9.94006 14.6094C11.1944 14.18 12.2805 13.4347 13.1333 12.4709C12.4575 12.11 11.7428 11.8113 10.9778 11.5795Z" fill="#999999"/>
<path d="M4.42578 7.94022C4.44846 8.7997 4.53758 9.65394 4.69191 10.4941C5.46731 10.3213 6.25883 10.2209 7.05972 10.1939V7.94022H4.42578Z" fill="#999999"/>
<path d="M13.6845 3.23123C12.8967 3.66421 12.0556 4.01982 11.1606 4.28525C11.3323 5.19743 11.431 6.1253 11.4546 7.05978H14.9999C14.9203 5.6733 14.4656 4.3579 13.6845 3.23123Z" fill="#999999"/>
<path d="M7.94019 7.94022V10.1939C8.74104 10.2209 9.53259 10.3213 10.308 10.4941C10.4623 9.65394 10.5514 8.7997 10.5741 7.94022H7.94019Z" fill="#999999"/>
</svg>
