<svg width="18" height="18" viewBox="0 0 18 18" fill="none" xmlns="http://www.w3.org/2000/svg">
<path id="icon-design" d="M9.64251 0.0223037C4.16595 -0.357501 -0.357505 4.16505 0.0222996 9.64161C0.352603 14.4018 4.50525 18 9.2762 18H9.89991C10.8944 18 11.6999 17.1945 11.6999 16.2V13.5C11.6999 12.5054 12.5054 11.6999 13.4999 11.6999H16.2C17.1945 11.6999 18 10.8944 18 9.89991V9.27621C18 4.50525 14.4018 0.352607 9.64251 0.0223037ZM7.64988 1.79982C8.39509 1.79982 8.9999 2.40463 8.9999 3.14984C8.9999 3.89505 8.39509 4.49985 7.64988 4.49985C6.90468 4.49985 6.29987 3.89505 6.29987 3.14984C6.29987 2.40463 6.90468 1.79982 7.64988 1.79982ZM3.14983 11.6999C2.40463 11.6999 1.79982 11.0951 1.79982 10.3499C1.79982 9.60471 2.40463 8.9999 3.14983 8.9999C3.89504 8.9999 4.49985 9.60471 4.49985 10.3499C4.49985 11.0951 3.89504 11.6999 3.14983 11.6999ZM4.04984 7.19988C3.30464 7.19988 2.69983 6.59508 2.69983 5.84987C2.69983 5.10466 3.30464 4.49985 4.04984 4.49985C4.79505 4.49985 5.39986 5.10466 5.39986 5.84987C5.39986 6.59508 4.79505 7.19988 4.04984 7.19988ZM8.09989 16.2C7.10538 16.2 6.29987 15.3945 6.29987 14.4C6.29987 13.4055 7.10538 12.5999 8.09989 12.5999C9.0944 12.5999 9.89991 13.4055 9.89991 14.4C9.89991 15.3945 9.0944 16.2 8.09989 16.2ZM12.1499 5.39986C11.4047 5.39986 10.7999 4.79506 10.7999 4.04985C10.7999 3.30464 11.4047 2.69983 12.1499 2.69983C12.8951 2.69983 13.4999 3.30464 13.4999 4.04985C13.4999 4.79506 12.8951 5.39986 12.1499 5.39986ZM14.85 9.89991C14.1048 9.89991 13.4999 9.29511 13.4999 8.5499C13.4999 7.80469 14.1048 7.19988 14.85 7.19988C15.5952 7.19988 16.2 7.80469 16.2 8.5499C16.2 9.29511 15.5952 9.89991 14.85 9.89991Z" fill="black"/>
</svg>
