<svg width="18" height="18" viewBox="0 0 18 18" fill="none" xmlns="http://www.w3.org/2000/svg">
<path id="icon-bases" d="M1.8 0C0.816243 0 0 0.816243 0 1.8V16.2C0 17.1838 0.816243 18 1.8 18H16.2C17.1838 18 18 17.1838 18 16.2V1.8C18 0.816243 17.1838 0 16.2 0H1.8ZM1.8 1.8H5.4V5.4H1.8V1.8ZM7.2 1.8H10.8V5.4H7.2V1.8ZM12.6 1.8H16.2V5.4H12.6V1.8ZM2.7 2.7V4.5H4.5V2.7H2.7ZM8.1 2.7V4.5H9.9V2.7H8.1ZM13.5 2.7V4.5H15.3V2.7H13.5ZM1.8 7.2H5.4V10.8H1.8V7.2ZM7.2 7.2H10.8V10.8H7.2V7.2ZM12.6 7.2H16.2V10.8H12.6V7.2ZM2.7 8.1V9.9H4.5V8.1H2.7ZM1.8 12.6H5.4V16.2H1.8V12.6ZM7.2 12.6H10.8V16.2H7.2V12.6ZM12.6 12.6H16.2V16.2H12.6V12.6ZM2.7 13.5V15.3H4.5V13.5H2.7Z" fill="black"/>
</svg>
