<svg width="18" height="18" viewBox="0 0 18 18" fill="none" xmlns="http://www.w3.org/2000/svg">
<path id="icon-dashboard-outline" d="M1.8 0C0.816243 0 0 0.816243 0 1.8V8.1C0 9.08376 0.816243 9.9 1.8 9.9H6.3C7.28376 9.9 8.1 9.08376 8.1 8.1V1.8C8.1 0.816243 7.28376 0 6.3 0H1.8ZM11.7 0C10.7162 0 9.9 0.816243 9.9 1.8V4.5C9.9 5.48376 10.7162 6.3 11.7 6.3H16.2C17.1838 6.3 18 5.48376 18 4.5V1.8C18 0.816243 17.1838 0 16.2 0H11.7ZM1.8 1.8H6.3V8.1H1.8V1.8ZM11.7 1.8H16.2V4.5H11.7V1.8ZM11.7 8.1C10.7162 8.1 9.9 8.91624 9.9 9.9V16.2C9.9 17.1838 10.7162 18 11.7 18H16.2C17.1838 18 18 17.1838 18 16.2V9.9C18 8.91624 17.1838 8.1 16.2 8.1H11.7ZM11.7 9.9H16.2V16.2H11.7V9.9ZM1.8 11.7C0.816243 11.7 0 12.5162 0 13.5V16.2C0 17.1838 0.816243 18 1.8 18H6.3C7.28376 18 8.1 17.1838 8.1 16.2V13.5C8.1 12.5162 7.28376 11.7 6.3 11.7H1.8ZM1.8 13.5H6.3V16.2H1.8V13.5Z" fill="black"/>
</svg>
