<svg width="160" height="160" viewBox="0 0 160 160" fill="none" xmlns="http://www.w3.org/2000/svg">
<path d="M156.438 66.4375L137.719 61.8437C136.688 58.5625 135.375 55.375 133.781 52.2813L143.344 36.3438C144.469 34.4688 144.188 32.125 142.688 30.625L129.375 17.3125C127.875 15.8125 125.531 15.5312 123.656 16.6562L107.719 26.2188C104.625 24.625 101.438 23.3125 98.1563 22.2813L93.6563 3.5625C93.0938 1.5 91.2188 0 89.0625 0H70.3125C68.1562 0 66.2813 1.5 65.7188 3.5625L61.2187 22.2813C57.9375 23.3125 54.75 24.625 51.6563 26.2188L35.7188 16.6562C33.8438 15.5312 31.5 15.8125 30 17.3125L16.6875 30.625C15.1875 32.125 14.9062 34.4688 16.0312 36.3438L25.5938 52.2813C24 55.375 22.6875 58.5625 21.6563 61.8437L3.5625 66.4375C1.5 66.9063 0 68.7812 0 70.9375V89.6875C0 91.8438 1.5 93.7187 3.5625 94.1875L21.6563 98.7813C22.6875 102.063 24 105.25 25.5938 108.344L16.0312 124.281C14.9062 126.156 15.1875 128.5 16.6875 130L30 143.313C31.5 144.813 33.8438 145.094 35.7188 143.969L51.6563 134.406C54.75 136 57.9375 137.313 61.2187 138.344L65.7188 156.438C66.2813 158.5 68.1562 160 70.3125 160H89.0625C91.2188 160 93.0938 158.5 93.6563 156.438L98.1563 138.344C101.438 137.313 104.625 136 107.719 134.406L123.656 143.969C125.531 145.094 127.875 144.813 129.375 143.313L142.688 130C144.188 128.5 144.469 126.156 143.344 124.281L133.781 108.344C135.375 105.25 136.688 102.063 137.719 98.7813L156.438 94.1875C158.5 93.7187 160 91.8438 160 89.6875V70.9375C160 68.7812 158.5 66.9063 156.438 66.4375ZM79.6875 103.75C66.75 103.75 56.25 93.25 56.25 80.3125C56.25 67.375 66.75 56.875 79.6875 56.875C92.625 56.875 103.125 67.375 103.125 80.3125C103.125 93.25 92.625 103.75 79.6875 103.75Z" fill="black"/>
</svg>
