<svg width="18" height="18" viewBox="0 0 18 18" fill="none" xmlns="http://www.w3.org/2000/svg">
<path id="icon-settings-outline" d="M6.74473 0L6.30352 2.27109C5.56176 2.55083 4.88062 2.94294 4.28379 3.43301L2.10234 2.68066L0 6.31934L1.74727 7.83809C1.6801 8.25049 1.64531 8.63266 1.64531 9C1.64531 9.36789 1.68114 9.74936 1.74727 10.1619V10.1637L0 11.6824L2.10234 15.3193L4.28203 14.5687C4.87892 15.0591 5.5616 15.449 6.30352 15.7289L6.74473 18H10.9459L11.3871 15.7289C12.1293 15.449 12.8097 15.0575 13.4068 14.567L15.5883 15.3193L17.6889 11.6824L15.9434 10.1619C16.0105 9.74951 16.0453 9.36734 16.0453 9C16.0453 8.63321 16.0103 8.25154 15.9434 7.83984V7.83809L17.6906 6.31758L15.5883 2.68066L13.4086 3.43125C12.8117 2.94091 12.129 2.55099 11.3871 2.27109L10.9459 0H6.74473ZM8.22832 1.8H9.4623L9.81211 3.6L10.7508 3.95508C11.3166 4.16832 11.8249 4.46108 12.266 4.82344L13.043 5.45977L14.7727 4.86562L15.3896 5.93262L14.008 7.13496L14.1662 8.12461V8.12637C14.2212 8.46381 14.2453 8.74689 14.2453 9C14.2453 9.25311 14.2212 9.53615 14.1662 9.87363L14.0062 10.8633L15.3879 12.0656L14.7709 13.1344L13.043 12.5385L12.2643 13.1766C11.8232 13.5389 11.3166 13.8317 10.7508 14.0449H10.749L9.81035 14.4L9.46055 16.2H8.22832L7.87852 14.4L6.93984 14.0449C6.37404 13.8317 5.86571 13.5389 5.42461 13.1766L4.64766 12.5402L2.91797 13.1344L2.30098 12.0674L3.68437 10.8633L3.52441 9.87715V9.87539C3.47017 9.53648 3.44531 9.25261 3.44531 9C3.44531 8.74689 3.46938 8.46385 3.52441 8.12637L3.68437 7.13672L2.30098 5.93437L2.91797 4.86562L4.64766 5.46152L5.42461 4.82344C5.86571 4.46108 6.37404 4.16832 6.93984 3.95508L7.87852 3.6L8.22832 1.8ZM8.84531 5.4C6.86844 5.4 5.24531 7.02313 5.24531 9C5.24531 10.9769 6.86844 12.6 8.84531 12.6C10.8222 12.6 12.4453 10.9769 12.4453 9C12.4453 7.02313 10.8222 5.4 8.84531 5.4ZM8.84531 7.2C9.84564 7.2 10.6453 7.99967 10.6453 9C10.6453 10.0003 9.84564 10.8 8.84531 10.8C7.84498 10.8 7.04531 10.0003 7.04531 9C7.04531 7.99967 7.84498 7.2 8.84531 7.2Z" fill="black"/>
</svg>
