<svg width="24" height="24" viewBox="0 0 24 24" fill="none" xmlns="http://www.w3.org/2000/svg">
<path d="M16 3C15.448 3 15 3.448 15 4V5.42773L8.99805 9.98633C8.99035 9.44095 8.5472 9 8 9H4C3.448 9 3 9.448 3 10V14C3 14.552 3.448 15 4 15H8C8.552 15 9 14.552 9 14L15 18.5V20C15 20.552 15.448 21 16 21H20C20.552 21 21 20.552 21 20V16C21 15.448 20.552 15 20 15H16C15.448 15 15 15.448 15 16L9.66016 11.9961L15 7.93945V8C15 8.552 15.448 9 16 9H20C20.552 9 21 8.552 21 8V4C21 3.448 20.552 3 20 3H16Z" fill="black"/>
</svg>
