<svg width="15" height="15" viewBox="0 0 15 15" fill="none" xmlns="http://www.w3.org/2000/svg">
<path d="M7.5 0C3.36 0 0 3.36 0 7.5C0 11.64 3.36 15 7.5 15C11.64 15 15 11.64 15 7.5C15 3.36 11.64 0 7.5 0ZM8.25 12.75H6.75V11.25H8.25V12.75ZM9.8025 6.9375L9.1275 7.6275C8.7525 8.01 8.4825 8.355 8.3475 8.895C8.2875 9.135 8.25 9.405 8.25 9.75H6.75V9.375C6.75 9.03 6.81 8.7 6.915 8.3925C7.065 7.9575 7.3125 7.5675 7.6275 7.2525L8.5575 6.3075C8.9025 5.9775 9.0675 5.4825 8.97 4.9575C8.8725 4.4175 8.4525 3.96 7.9275 3.81C7.095 3.5775 6.3225 4.05 6.075 4.7625C5.985 5.04 5.7525 5.25 5.46 5.25H5.235C4.8 5.25 4.5 4.83 4.62 4.41C4.9425 3.3075 5.88 2.4675 7.0425 2.2875C8.1825 2.1075 9.27 2.7 9.945 3.6375C10.83 4.86 10.5675 6.1725 9.8025 6.9375Z" fill="#999999"/>
</svg>
