<svg width="15" height="14" viewBox="0 0 15 14" fill="none" xmlns="http://www.w3.org/2000/svg">
<path d="M5.60646 4.65665L4.69401 3.81934C4.80029 3.63186 4.86603 3.41959 4.86603 3.19059C4.86603 2.46484 4.26061 1.87698 3.51284 1.87698C2.76507 1.87698 2.15869 2.46453 2.15869 3.19059C2.15869 3.91665 2.76507 4.50481 3.51284 4.50481C3.77646 4.50481 4.02029 4.42858 4.22837 4.30215L5.13954 5.13853C5.27742 4.96158 5.43284 4.79951 5.60646 4.65665Z" fill="#999999"/>
<path d="M9.46595 4.55191L10.6784 2.57081C10.7978 2.60397 10.9216 2.62783 11.0515 2.62783C11.8005 2.62783 12.406 2.03967 12.406 1.3136C12.406 0.587853 11.8005 0 11.0515 0C10.3037 0 9.69861 0.587543 9.69861 1.3136C9.69861 1.674 9.84829 1.99969 10.0902 2.23737L8.88159 4.21289C9.08936 4.30431 9.28532 4.41834 9.46595 4.55191Z" fill="#999999"/>
<path d="M13.6474 6.21042C13.0653 6.21042 12.5722 6.56958 12.381 7.07035L10.6966 6.9089C10.6966 6.9213 10.6985 6.93307 10.6985 6.94516C10.6985 7.15836 10.6742 7.3666 10.6305 7.56772L12.3143 7.72917C12.4161 8.35637 12.9724 8.83732 13.6474 8.83732C14.3949 8.83732 15 8.24977 15 7.52402C15 6.79858 14.3949 6.21042 13.6474 6.21042Z" fill="#999999"/>
<path d="M8.99905 11.3768L8.62246 9.77905C8.4099 9.85095 8.18873 9.90239 7.95799 9.92811L8.33522 11.5262C7.90277 11.7459 7.60437 12.18 7.60437 12.687C7.60437 13.4128 8.20948 14 8.95852 14C9.70597 14 10.3111 13.4125 10.3111 12.687C10.312 11.9746 9.72735 11.3979 8.99905 11.3768Z" fill="#999999"/>
<path d="M4.58202 7.57948L2.48521 8.26154C2.2433 7.90269 1.82681 7.6647 1.35287 7.6647C0.605106 7.6647 0 8.25255 0 8.97831C0 9.70499 0.605106 10.2928 1.35287 10.2928C2.1 10.2928 2.7067 9.70499 2.7067 8.97831C2.7067 8.94794 2.7 8.92005 2.69745 8.8903L4.80096 8.20638C4.70617 8.00774 4.63085 7.79857 4.58202 7.57948Z" fill="#999999"/>
<path d="M7.60532 9.19832C8.88692 9.19832 9.92585 8.18954 9.92585 6.94515C9.92585 5.70075 8.88692 4.69197 7.60532 4.69197C6.32373 4.69197 5.28479 5.70075 5.28479 6.94515C5.28479 8.18954 6.32373 9.19832 7.60532 9.19832Z" fill="#999999"/>
</svg>
