<svg width="160" height="160" viewBox="0 0 160 160" fill="none" xmlns="http://www.w3.org/2000/svg">
<path d="M160 37.6471V14.1176C160 6.33318 153.692 0 145.938 0H14.0625C6.30844 0 0 6.33318 0 14.1176V37.6471H160ZM108.125 18.8235H136.25C138.839 18.8235 140.938 20.9305 140.938 23.5294C140.938 26.1283 138.839 28.2353 136.25 28.2353H108.125C105.536 28.2353 103.438 26.1283 103.438 23.5294C103.438 20.9305 105.536 18.8235 108.125 18.8235ZM61.25 18.8235C63.8388 18.8235 65.9375 20.9305 65.9375 23.5294C65.9375 26.1283 63.8388 28.2353 61.25 28.2353C58.6612 28.2353 56.5625 26.1283 56.5625 23.5294C56.5625 20.9305 58.6612 18.8235 61.25 18.8235ZM42.5 18.8235C45.0888 18.8235 47.1875 20.9305 47.1875 23.5294C47.1875 26.1283 45.0888 28.2353 42.5 28.2353C39.9112 28.2353 37.8125 26.1283 37.8125 23.5294C37.8125 20.9305 39.9112 18.8235 42.5 18.8235ZM23.75 18.8235C26.3388 18.8235 28.4375 20.9305 28.4375 23.5294C28.4375 26.1283 26.3388 28.2353 23.75 28.2353C21.1612 28.2353 19.0625 26.1283 19.0625 23.5294C19.0625 20.9305 21.1612 18.8235 23.75 18.8235Z" fill="black"/>
<path d="M0 47.0588V145.882C0 153.667 6.30844 160 14.0625 160H145.938C153.692 160 160 153.667 160 145.882V47.0588H0ZM54.8031 113.972C56.825 115.596 57.1525 118.557 55.5353 120.587C53.9184 122.616 50.9681 122.945 48.9469 121.321L25.5094 102.498C23.1659 100.616 23.1644 97.0315 25.5094 95.1486L48.9469 76.325C50.9675 74.7015 53.9178 75.0303 55.5353 77.0598C57.1525 79.0893 56.825 82.0508 54.8031 83.674L35.9413 98.8235L54.8031 113.972ZM98.3709 67.7362L70.2459 133.619C69.2263 136.007 66.4713 137.114 64.0909 136.09C61.7116 135.066 60.6091 132.3 61.6291 129.911L89.7541 64.0285C90.7741 61.6398 93.5297 60.5333 95.9091 61.557C98.2884 62.5807 99.3909 65.3471 98.3709 67.7362V67.7362ZM134.491 102.498L111.053 121.322C109.035 122.943 106.084 122.619 104.465 120.587C102.847 118.557 103.175 115.596 105.197 113.973L124.059 98.8235L105.197 83.6747C103.175 82.0511 102.847 79.0899 104.465 77.0604C106.082 75.0309 109.032 74.7018 111.053 76.3256L134.491 95.1492C136.834 97.0306 136.836 100.615 134.491 102.498V102.498Z" fill="black"/>
</svg>
