<svg width="24" height="24" viewBox="0 0 24 24" fill="none" xmlns="http://www.w3.org/2000/svg">
<path d="M12 2C6.24101 2 1.6194 6.86689 2.0254 12.7129C2.3924 18.0019 7.00565 22 12.3067 22H13C14.105 22 15 21.105 15 20V17C15 15.895 15.895 15 17 15H20C21.105 15 22 14.105 22 13V12.3066C22 7.00564 18.0029 2.39239 12.7149 2.02539C12.4749 2.00839 12.236 2 12 2ZM12 4C12.19 4 12.3812 4.00653 12.5742 4.01953C16.7382 4.30853 20 7.94864 20 12.3066V13H17C14.794 13 13 14.794 13 17V20H12.3067C7.94865 20 4.30754 16.7372 4.01954 12.5742C3.86354 10.3242 4.61945 8.18392 6.14845 6.54492C7.67945 4.90392 9.75801 4 12 4ZM12.5 5C12.1022 5 11.7207 5.15804 11.4394 5.43934C11.158 5.72064 11 6.10218 11 6.5C11 6.89782 11.158 7.27936 11.4394 7.56066C11.7207 7.84196 12.1022 8 12.5 8C12.8978 8 13.2794 7.84196 13.5607 7.56066C13.842 7.27936 14 6.89782 14 6.5C14 6.10218 13.842 5.72064 13.5607 5.43934C13.2794 5.15804 12.8978 5 12.5 5ZM8.50001 6C8.10219 6 7.72065 6.15804 7.43935 6.43934C7.15805 6.72064 7.00001 7.10218 7.00001 7.5C7.00001 7.89782 7.15805 8.27936 7.43935 8.56066C7.72065 8.84196 8.10219 9 8.50001 9C8.89784 9 9.27937 8.84196 9.56067 8.56066C9.84198 8.27936 10 7.89782 10 7.5C10 7.10218 9.84198 6.72064 9.56067 6.43934C9.27937 6.15804 8.89784 6 8.50001 6ZM16.5 7C16.1022 7 15.7207 7.15804 15.4394 7.43934C15.158 7.72064 15 8.10218 15 8.5C15 8.89782 15.158 9.27936 15.4394 9.56066C15.7207 9.84196 16.1022 10 16.5 10C16.8978 10 17.2794 9.84196 17.5607 9.56066C17.842 9.27936 18 8.89782 18 8.5C18 8.10218 17.842 7.72064 17.5607 7.43934C17.2794 7.15804 16.8978 7 16.5 7ZM6.50001 10C6.10219 10 5.72065 10.158 5.43935 10.4393C5.15805 10.7206 5.00001 11.1022 5.00001 11.5C5.00001 11.8978 5.15805 12.2794 5.43935 12.5607C5.72065 12.842 6.10219 13 6.50001 13C6.89784 13 7.27937 12.842 7.56067 12.5607C7.84198 12.2794 8.00001 11.8978 8.00001 11.5C8.00001 11.1022 7.84198 10.7206 7.56067 10.4393C7.27937 10.158 6.89784 10 6.50001 10ZM10 14C9.46958 14 8.96087 14.2107 8.5858 14.5858C8.21072 14.9609 8.00001 15.4696 8.00001 16C8.00001 16.5304 8.21072 17.0391 8.5858 17.4142C8.96087 17.7893 9.46958 18 10 18C10.5304 18 11.0392 17.7893 11.4142 17.4142C11.7893 17.0391 12 16.5304 12 16C12 15.4696 11.7893 14.9609 11.4142 14.5858C11.0392 14.2107 10.5304 14 10 14Z" fill="black"/>
</svg>
