<svg width="24" height="24" viewBox="0 0 24 24" fill="none" xmlns="http://www.w3.org/2000/svg">
<path d="M4 2C2.90694 2 2 2.90694 2 4V11C2 12.0931 2.90694 13 4 13H9C10.0931 13 11 12.0931 11 11V4C11 2.90694 10.0931 2 9 2H4ZM15 2C13.9069 2 13 2.90694 13 4V7C13 8.09306 13.9069 9 15 9H20C21.0931 9 22 8.09306 22 7V4C22 2.90694 21.0931 2 20 2H15ZM4 4H9V11H4V4ZM15 4H20V7H15V4ZM15 11C13.9069 11 13 11.9069 13 13V20C13 21.0931 13.9069 22 15 22H20C21.0931 22 22 21.0931 22 20V13C22 11.9069 21.0931 11 20 11H15ZM15 13H20V20H15V13ZM4 15C2.90694 15 2 15.9069 2 17V20C2 21.0931 2.90694 22 4 22H9C10.0931 22 11 21.0931 11 20V17C11 15.9069 10.0931 15 9 15H4ZM4 17H9V20H4V17Z" fill="black"/>
</svg>
