<svg width="15" height="15" viewBox="0 0 15 15" fill="none" xmlns="http://www.w3.org/2000/svg">
<path d="M15 3.52941V1.32353C15 0.593735 14.4086 0 13.6816 0H1.31836C0.591416 0 0 0.593735 0 1.32353V3.52941H15ZM10.1367 1.7647H12.7734C13.0161 1.7647 13.2129 1.96223 13.2129 2.20588C13.2129 2.44953 13.0161 2.64706 12.7734 2.64706H10.1367C9.89402 2.64706 9.69727 2.44953 9.69727 2.20588C9.69727 1.96223 9.89402 1.7647 10.1367 1.7647ZM5.74219 1.7647C5.98488 1.7647 6.18164 1.96223 6.18164 2.20588C6.18164 2.44953 5.98488 2.64706 5.74219 2.64706C5.49949 2.64706 5.30273 2.44953 5.30273 2.20588C5.30273 1.96223 5.49949 1.7647 5.74219 1.7647ZM3.98438 1.7647C4.22707 1.7647 4.42383 1.96223 4.42383 2.20588C4.42383 2.44953 4.22707 2.64706 3.98438 2.64706C3.74168 2.64706 3.54492 2.44953 3.54492 2.20588C3.54492 1.96223 3.74168 1.7647 3.98438 1.7647ZM2.22656 1.7647C2.46926 1.7647 2.66602 1.96223 2.66602 2.20588C2.66602 2.44953 2.46926 2.64706 2.22656 2.64706C1.98387 2.64706 1.78711 2.44953 1.78711 2.20588C1.78711 1.96223 1.98387 1.7647 2.22656 1.7647Z" fill="#999999"/>
<path d="M0 4.41177V13.6765C0 14.4063 0.591416 15 1.31836 15H13.6816C14.4086 15 15 14.4063 15 13.6765V4.41177H0ZM5.13779 10.6849C5.32734 10.8371 5.35805 11.1147 5.20644 11.305C5.05485 11.4952 4.77826 11.5261 4.58877 11.3739L2.3915 9.60918C2.17181 9.4328 2.17166 9.09671 2.3915 8.92018L4.58877 7.15548C4.7782 7.00327 5.05479 7.0341 5.20644 7.22436C5.35805 7.41462 5.32734 7.69227 5.13779 7.84445L3.36949 9.26471L5.13779 10.6849ZM9.22227 6.35027L6.58556 12.5267C6.48996 12.7506 6.23168 12.8545 6.00853 12.7584C5.78546 12.6625 5.6821 12.4031 5.77772 12.1792L8.41444 6.00268C8.51007 5.77874 8.76841 5.67501 8.99147 5.77098C9.21454 5.86695 9.3179 6.1263 9.22227 6.35027ZM12.6085 9.60921L10.4112 11.3739C10.222 11.5259 9.94541 11.4956 9.79356 11.305C9.64195 11.1148 9.67266 10.8371 9.86221 10.6849L11.6305 9.26471L9.86221 7.84451C9.67266 7.6923 9.64195 7.41468 9.79356 7.22442C9.94515 7.03415 10.2217 7.0033 10.4112 7.15554L12.6085 8.92024C12.8282 9.09662 12.8283 9.43268 12.6085 9.60921Z" fill="#999999"/>
</svg>
