<svg width="15" height="15" viewBox="0 0 15 15" fill="none" xmlns="http://www.w3.org/2000/svg">
<path d="M3.36914 1.73665V0.448207C3.36914 0.200677 3.17238 0 2.92969 0C2.68699 0 2.49023 0.200677 2.49023 0.448207V1.73665C2.63358 1.71466 2.78033 1.70319 2.92969 1.70319C3.07904 1.70319 3.22579 1.71466 3.36914 1.73665Z" fill="#999999"/>
<path d="M14.9729 9.39343L14.4326 7.89522C14.3655 7.70892 14.1861 7.5899 13.9919 7.60266L13.2653 7.65047L12.9269 6.95258C12.8483 6.79039 12.6817 6.69232 12.5047 6.70398L11.743 6.75409L9.34302 5.34086C9.61393 4.10067 9.08374 2.77296 7.94775 2.10402C7.69258 1.95376 7.42437 1.84786 7.15161 1.78257C7.45416 2.05484 7.71769 2.37913 7.92733 2.7495C8.3408 3.4799 8.50829 4.30774 8.41173 5.1435C8.34352 5.73388 8.14879 6.28974 7.84123 6.78068L8.0776 7.19823C8.21353 7.10844 8.34303 7.00687 8.46411 6.89348L13.9587 10.129C14.086 10.2039 14.2415 10.209 14.3732 10.1426L14.7553 9.94992C14.9566 9.84839 15.0505 9.60839 14.9729 9.39343Z" fill="#999999"/>
<path d="M9.70486 11.042L9.0521 10.7128L9.10123 9.93589C9.11266 9.75532 9.0165 9.58545 8.85748 9.50528L8.17322 9.16022L6.7876 6.71244C7.6302 5.77655 7.82192 4.35636 7.16605 3.19775C6.78695 2.52804 6.19202 2.0648 5.52265 1.84637C5.62199 1.94056 5.71686 2.04036 5.8065 2.14569C6.40732 2.85152 6.73823 3.75556 6.73823 4.69124C6.73823 5.53464 6.47746 6.33699 5.98413 7.01151C5.79109 7.27545 5.56955 7.51025 5.32422 7.71296L8.4376 13.2129C8.51107 13.3427 8.64326 13.4264 8.78989 13.4361L9.21525 13.4641C9.43937 13.4788 9.63833 13.3188 9.67656 13.0931L9.9431 11.5202C9.97627 11.3245 9.87932 11.13 9.70486 11.042Z" fill="#999999"/>
<path d="M5.85937 4.69123C5.85937 3.19332 4.77867 1.95292 3.36914 1.73665V3.0478H3.5032C3.73983 3.0478 3.94345 3.23327 3.95458 3.47435C3.96647 3.73174 3.76538 3.94422 3.51562 3.94422H2.35617C2.11954 3.94422 1.91593 3.75875 1.90479 3.51767C1.8929 3.26028 2.09399 3.0478 2.34375 3.0478H2.49023V1.73665C1.0807 1.95292 0 3.19332 0 4.69123C0 6.0291 0.862265 7.16124 2.05078 7.54207V14.3106C2.05078 14.4605 2.12423 14.6004 2.24645 14.6836L2.60112 14.9247C2.78798 15.0518 3.0387 15.0147 3.18249 14.8387L4.18447 13.6124C4.30907 13.4599 4.32047 13.242 4.21251 13.0768L3.80859 12.4589L4.23202 11.8111C4.33043 11.6605 4.33043 11.4644 4.23202 11.3139L3.80859 10.666V7.54207C4.99711 7.16124 5.85937 6.0291 5.85937 4.69123Z" fill="#999999"/>
</svg>
