<svg width="18" height="18" viewBox="0 0 18 18" fill="none" xmlns="http://www.w3.org/2000/svg">
<path id="icon-extensions-2" d="M7.28571 0C6.102 0 5.14286 0.959143 5.14286 2.14286V3.42857H1.71429C0.767143 3.42857 0 4.19571 0 5.14286V8.57143H1.28571C2.46943 8.57143 3.42857 9.53057 3.42857 10.7143C3.42857 11.898 2.46943 12.8571 1.28571 12.8571H0V16.2857C0 17.2329 0.767143 18 1.71429 18H5.14286V16.7143C5.14286 15.5306 6.102 14.5714 7.28571 14.5714C8.46943 14.5714 9.42857 15.5306 9.42857 16.7143V18H12.8571C13.8043 18 14.5714 17.2329 14.5714 16.2857V12.8571H15.8571C17.0409 12.8571 18 11.898 18 10.7143C18 9.53057 17.0409 8.57143 15.8571 8.57143H14.5714V5.14286C14.5714 4.19571 13.8043 3.42857 12.8571 3.42857H9.42857V2.14286C9.42857 0.959143 8.46943 0 7.28571 0Z" fill="black"/>
</svg>
