<svg width="18" height="18" viewBox="0 0 18 18" fill="none" xmlns="http://www.w3.org/2000/svg">
<path id="icon-design-outline" d="M8.99976 0C3.81652 0 -0.343042 4.38032 0.0223673 9.64186C0.352676 14.4021 4.50471 18.0005 9.27574 18.0005H9.89978C10.8943 18.0005 11.6998 17.195 11.6998 16.2004V13.5004C11.6998 12.5058 12.5054 11.7003 13.4999 11.7003H16.2C17.1945 11.7003 18 10.8948 18 9.90027V9.27623C18 4.5052 14.4025 0.353161 9.64313 0.0228522C9.42713 0.00755177 9.21216 0 8.99976 0ZM8.99976 1.80005C9.17076 1.80005 9.34286 1.80593 9.51657 1.81763C13.2643 2.07773 16.2 5.35392 16.2 9.27623V9.90027H13.4999C11.5144 9.90027 9.89978 11.5149 9.89978 13.5004V16.2004H9.27574C5.35344 16.2004 2.07635 13.2639 1.81714 9.51705C1.67674 7.492 2.35707 5.56568 3.73321 4.09054C5.11115 2.6136 6.9819 1.80005 8.99976 1.80005ZM9.44977 2.70007C9.09172 2.70007 8.74833 2.84231 8.49515 3.09549C8.24197 3.34867 8.09973 3.69206 8.09973 4.05011C8.09973 4.40816 8.24197 4.75155 8.49515 5.00473C8.74833 5.25791 9.09172 5.40015 9.44977 5.40015C9.80782 5.40015 10.1512 5.25791 10.4044 5.00473C10.6576 4.75155 10.7998 4.40816 10.7998 4.05011C10.7998 3.69206 10.6576 3.34867 10.4044 3.09549C10.1512 2.84231 9.80782 2.70007 9.44977 2.70007V2.70007ZM5.84967 3.6001C5.49162 3.6001 5.14823 3.74233 4.89505 3.99551C4.64187 4.24869 4.49964 4.59208 4.49964 4.95013C4.49964 5.30819 4.64187 5.65157 4.89505 5.90475C5.14823 6.15793 5.49162 6.30017 5.84967 6.30017C6.20772 6.30017 6.55111 6.15793 6.80429 5.90475C7.05747 5.65157 7.19971 5.30819 7.19971 4.95013C7.19971 4.59208 7.05747 4.24869 6.80429 3.99551C6.55111 3.74233 6.20772 3.6001 5.84967 3.6001ZM13.0499 4.50012C12.6918 4.50012 12.3484 4.64236 12.0952 4.89554C11.8421 5.14872 11.6998 5.49211 11.6998 5.85016C11.6998 6.20821 11.8421 6.5516 12.0952 6.80478C12.3484 7.05796 12.6918 7.20019 13.0499 7.20019C13.4079 7.20019 13.7513 7.05796 14.0045 6.80478C14.2577 6.5516 14.3999 6.20821 14.3999 5.85016C14.3999 5.49211 14.2577 5.14872 14.0045 4.89554C13.7513 4.64236 13.4079 4.50012 13.0499 4.50012ZM4.04962 7.20019C3.69157 7.20019 3.34818 7.34243 3.095 7.59561C2.84182 7.84879 2.69959 8.19218 2.69959 8.55023C2.69959 8.90828 2.84182 9.25167 3.095 9.50485C3.34818 9.75803 3.69157 9.90027 4.04962 9.90027C4.40768 9.90027 4.75106 9.75803 5.00424 9.50485C5.25742 9.25167 5.39966 8.90828 5.39966 8.55023C5.39966 8.19218 5.25742 7.84879 5.00424 7.59561C4.75106 7.34243 4.40768 7.20019 4.04962 7.20019ZM7.19971 10.8003C6.72231 10.8003 6.26446 10.9899 5.92688 11.3275C5.58931 11.6651 5.39966 12.1229 5.39966 12.6003C5.39966 13.0777 5.58931 13.5356 5.92688 13.8732C6.26446 14.2107 6.72231 14.4004 7.19971 14.4004C7.67711 14.4004 8.13496 14.2107 8.47253 13.8732C8.81011 13.5356 8.99976 13.0777 8.99976 12.6003C8.99976 12.1229 8.81011 11.6651 8.47253 11.3275C8.13496 10.9899 7.67711 10.8003 7.19971 10.8003Z" fill="black"/>
</svg>
