<svg width="18" height="18" viewBox="0 0 18 18" fill="none" xmlns="http://www.w3.org/2000/svg">
<path d="M8 4C8 6.20914 6.20914 8 4 8C1.79086 8 0 6.20914 0 4C0 1.79086 1.79086 0 4 0C6.20914 0 8 1.79086 8 4ZM2 4C2 5.10457 2.89543 6 4 6C5.10457 6 6 5.10457 6 4C6 2.89543 5.10457 2 4 2C2.89543 2 2 2.89543 2 4Z" fill="black"/>
<path d="M18 4C18 6.20914 16.2091 8 14 8C11.7909 8 10 6.20914 10 4C10 1.79086 11.7909 0 14 0C16.2091 0 18 1.79086 18 4ZM12 4C12 5.10457 12.8954 6 14 6C15.1046 6 16 5.10457 16 4C16 2.89543 15.1046 2 14 2C12.8954 2 12 2.89543 12 4Z" fill="black"/>
<path d="M18 14C18 16.2091 16.2091 18 14 18C11.7909 18 10 16.2091 10 14C10 11.7909 11.7909 10 14 10C16.2091 10 18 11.7909 18 14ZM12 14C12 15.1046 12.8954 16 14 16C15.1046 16 16 15.1046 16 14C16 12.8954 15.1046 12 14 12C12.8954 12 12 12.8954 12 14Z" fill="black"/>
<path d="M8 14C8 16.2091 6.20914 18 4 18C1.79086 18 0 16.2091 0 14C0 11.7909 1.79086 10 4 10C6.20914 10 8 11.7909 8 14ZM2 14C2 15.1046 2.89543 16 4 16C5.10457 16 6 15.1046 6 14C6 12.8954 5.10457 12 4 12C2.89543 12 2 12.8954 2 14Z" fill="black"/>
</svg>
