<svg width="18" height="18" viewBox="0 0 18 18" fill="none" xmlns="http://www.w3.org/2000/svg">
<path id="icon-dashboard" d="M6.3 0H1.8C0.8073 0 0 0.8073 0 1.8V8.1C0 9.0927 0.8073 9.9 1.8 9.9H6.3C7.2927 9.9 8.1 9.0927 8.1 8.1V1.8C8.1 0.8073 7.2927 0 6.3 0ZM16.2 0H11.7C10.7073 0 9.9 0.8073 9.9 1.8V4.5C9.9 5.4927 10.7073 6.3 11.7 6.3H16.2C17.1927 6.3 18 5.4927 18 4.5V1.8C18 0.8073 17.1927 0 16.2 0ZM6.3 11.7H1.8C0.8073 11.7 0 12.5073 0 13.5V16.2C0 17.1927 0.8073 18 1.8 18H6.3C7.2927 18 8.1 17.1927 8.1 16.2V13.5C8.1 12.5073 7.2927 11.7 6.3 11.7ZM16.2 8.1H11.7C10.7073 8.1 9.9 8.9073 9.9 9.9V16.2C9.9 17.1927 10.7073 18 11.7 18H16.2C17.1927 18 18 17.1927 18 16.2V9.9C18 8.9073 17.1927 8.1 16.2 8.1Z" fill="black"/>
</svg>
