<svg width="160" height="160" viewBox="0 0 160 160" fill="none" xmlns="http://www.w3.org/2000/svg">
<path d="M100.59 26.0522C96.5786 15.6628 91.5368 6.91284 85.743 0.203857C83.8403 0.06958 81.9253 0 80.0006 0C78.0746 0 76.1596 0.06958 74.2581 0.203857C68.4631 6.91284 63.4213 15.6616 59.4116 26.0522C58.1166 29.4067 56.9525 32.8845 55.9192 36.4636H104.082C103.047 32.8845 101.883 29.4067 100.59 26.0522V26.0522Z" fill="black"/>
<path d="M53.5627 114.161H106.437C108.458 104.784 109.632 94.8596 109.909 84.6875H50.0911C50.3674 94.8608 51.5414 104.784 53.5627 114.161V114.161Z" fill="black"/>
<path d="M106.437 45.8386H53.5627C51.5414 55.2161 50.3674 65.1404 50.0911 75.3125H109.909C109.632 65.1392 108.458 55.2161 106.437 45.8386V45.8386Z" fill="black"/>
<path d="M59.4104 133.948C63.4213 144.337 68.4631 153.087 74.2569 159.796C76.1596 159.93 78.0746 160 80.0006 160C81.9253 160 83.8403 159.93 85.743 159.796C91.5368 153.087 96.5786 144.338 100.588 133.948C101.883 130.593 103.047 127.115 104.081 123.536H55.9192C56.9525 127.115 58.1166 130.593 59.4104 133.948V133.948Z" fill="black"/>
<path d="M116.013 45.8386C117.907 55.199 119.037 65.1086 119.303 75.3125H160C159.406 64.9719 156.852 55 152.509 45.8313C152.464 45.8325 152.42 45.8386 152.374 45.8386H116.013Z" fill="black"/>
<path d="M43.988 114.161C42.0926 104.801 40.9627 94.8914 40.6973 84.6875H0C0.5943 95.0281 3.14759 105 7.49112 114.169C7.53636 114.167 7.58038 114.161 7.62563 114.161H43.988Z" fill="black"/>
<path d="M113.81 123.536C110.314 136.55 105.271 148.217 98.9828 157.75C113.132 154.335 126.113 147.104 136.667 136.569C140.689 132.554 144.225 128.185 147.258 123.536H113.81Z" fill="black"/>
<path d="M46.1903 36.4636C49.6876 23.4497 54.7294 11.7834 61.0172 2.24976C46.869 5.66528 33.8873 12.8955 23.3317 23.4314C19.311 27.4463 15.7746 31.8152 12.7419 36.4636H46.1903Z" fill="black"/>
<path d="M46.1903 123.536H12.7419C15.7746 128.185 19.311 132.554 23.3317 136.569C33.8873 147.104 46.8677 154.335 61.016 157.75C54.7294 148.217 49.6876 136.55 46.1903 123.536Z" fill="black"/>
<path d="M113.81 36.4636H147.258C144.225 31.8152 140.69 27.4463 136.668 23.4314C126.113 12.8955 113.132 5.66528 98.9828 2.24976C105.271 11.7834 110.314 23.4497 113.81 36.4636V36.4636Z" fill="black"/>
<path d="M119.303 84.6875C119.037 94.8914 117.909 104.801 116.013 114.161H152.374C152.42 114.161 152.464 114.167 152.509 114.169C156.852 105 159.406 95.0281 160 84.6875H119.303Z" fill="black"/>
<path d="M40.6973 75.3125C40.9627 65.1086 42.0926 55.199 43.988 45.8386H7.62563C7.58038 45.8386 7.53636 45.8325 7.49112 45.8313C3.14759 55 0.5943 64.9719 0 75.3125H40.6973Z" fill="black"/>
</svg>
