<svg width="18" height="17" viewBox="0 0 18 17" fill="none" xmlns="http://www.w3.org/2000/svg">
<path d="M16.9595 8.47974C16.9595 13.163 13.163 16.9595 8.47974 16.9595C3.79651 16.9595 0 13.163 0 8.47974C0 3.79651 3.79651 0 8.47974 0C13.163 0 16.9595 3.79651 16.9595 8.47974ZM2.54392 8.47974C2.54392 11.758 5.20148 14.4156 8.47974 14.4156C11.758 14.4156 14.4156 11.758 14.4156 8.47974C14.4156 5.20148 11.758 2.54392 8.47974 2.54392C5.20148 2.54392 2.54392 5.20148 2.54392 8.47974Z" fill="black"/>
<rect x="18" y="15.1414" width="2.46303" height="4.97251" rx="1.23151" transform="rotate(131.87 18 15.1414)" fill="black"/>
</svg>
