<svg width="24" height="24" viewBox="0 0 24 24" fill="none" xmlns="http://www.w3.org/2000/svg">
<path d="M12.714 2.025C6.62899 1.603 1.60299 6.628 2.02499 12.713C2.39199 18.002 7.00599 22 12.307 22H13C14.105 22 15 21.105 15 20V17C15 15.895 15.895 15 17 15H20C21.105 15 22 14.105 22 13V12.307C22 7.006 18.002 2.392 12.714 2.025ZM10.5 4C11.328 4 12 4.672 12 5.5C12 6.328 11.328 7 10.5 7C9.67199 7 8.99999 6.328 8.99999 5.5C8.99999 4.672 9.67199 4 10.5 4ZM5.49999 15C4.67199 15 3.99999 14.328 3.99999 13.5C3.99999 12.672 4.67199 12 5.49999 12C6.32799 12 6.99999 12.672 6.99999 13.5C6.99999 14.328 6.32799 15 5.49999 15ZM6.49999 10C5.67199 10 4.99999 9.328 4.99999 8.5C4.99999 7.672 5.67199 7 6.49999 7C7.32799 7 7.99999 7.672 7.99999 8.5C7.99999 9.328 7.32799 10 6.49999 10ZM11 20C9.89499 20 8.99999 19.105 8.99999 18C8.99999 16.895 9.89499 16 11 16C12.105 16 13 16.895 13 18C13 19.105 12.105 20 11 20ZM15.5 8C14.672 8 14 7.328 14 6.5C14 5.672 14.672 5 15.5 5C16.328 5 17 5.672 17 6.5C17 7.328 16.328 8 15.5 8ZM18.5 13C17.672 13 17 12.328 17 11.5C17 10.672 17.672 10 18.5 10C19.328 10 20 10.672 20 11.5C20 12.328 19.328 13 18.5 13Z" fill="black"/>
</svg>
