<svg width="160" height="160" viewBox="0 0 160 160" fill="none" xmlns="http://www.w3.org/2000/svg">
<path fill-rule="evenodd" clip-rule="evenodd" d="M94.5 32.6316C103.06 32.6316 110 25.3268 110 16.3158C110 7.30483 103.06 0 94.5 0C85.9396 0 79 7.30483 79 16.3158C79 19.1012 79.6631 21.7237 80.8322 24.0177L36.1069 64.3342C32.2878 60.9715 27.3685 58.9474 22 58.9474C9.84974 58.9474 0 69.3155 0 82.1053C0 94.895 9.84974 105.263 22 105.263C29.6548 105.263 36.3964 101.148 40.3373 94.9046L96.9109 118.303C96.3156 120.871 96 123.555 96 126.316C96 144.919 110.327 160 128 160C145.673 160 160 144.919 160 126.316C160 107.713 145.673 92.6316 128 92.6316C115.781 92.6316 105.162 99.8405 99.7708 110.438L43.4755 87.1547C43.8189 85.5293 44 83.8396 44 82.1053C44 78.0068 42.9886 74.157 41.2141 70.8174L86.3076 30.169C88.6845 31.7298 91.4922 32.6316 94.5 32.6316Z" fill="black"/>
</svg>
