<svg width="24" height="24" viewBox="0 0 24 24" fill="none" xmlns="http://www.w3.org/2000/svg">
<path d="M9 2H4C2.897 2 2 2.897 2 4V11C2 12.103 2.897 13 4 13H9C10.103 13 11 12.103 11 11V4C11 2.897 10.103 2 9 2ZM20 2H15C13.897 2 13 2.897 13 4V7C13 8.103 13.897 9 15 9H20C21.103 9 22 8.103 22 7V4C22 2.897 21.103 2 20 2ZM9 15H4C2.897 15 2 15.897 2 17V20C2 21.103 2.897 22 4 22H9C10.103 22 11 21.103 11 20V17C11 15.897 10.103 15 9 15ZM20 11H15C13.897 11 13 11.897 13 13V20C13 21.103 13.897 22 15 22H20C21.103 22 22 21.103 22 20V13C22 11.897 21.103 11 20 11Z" fill="black"/>
</svg>
