<svg width="24" height="24" viewBox="0 0 24 24" fill="none" xmlns="http://www.w3.org/2000/svg">
<path d="M11 1C9.35503 1 8 2.35503 8 4H4C2.90694 4 2 4.90694 2 6V12H4C4.56503 12 5 12.435 5 13C5 13.565 4.56503 14 4 14H2V20C2 21.0931 2.90694 22 4 22H10V20C10 19.435 10.435 19 11 19C11.565 19 12 19.435 12 20V22H18C19.0931 22 20 21.0931 20 20V16C21.645 16 23 14.645 23 13C23 11.355 21.645 10 20 10V6C20 4.90694 19.0931 4 18 4H14C14 2.35503 12.645 1 11 1ZM11 3C11.565 3 12 3.43497 12 4V6H18V12H20C20.565 12 21 12.435 21 13C21 13.565 20.565 14 20 14H18V20H14C14 18.355 12.645 17 11 17C9.35503 17 8 18.355 8 20H4V16C5.64497 16 7 14.645 7 13C7 11.355 5.64497 10 4 10V6H10V4C10 3.43497 10.435 3 11 3Z" fill="black"/>
</svg>
