<svg width="36" height="18" viewBox="0 0 36 18" fill="none" xmlns="http://www.w3.org/2000/svg">
<path d="M-3.93402e-07 9L7.86529 17.5027C8.22493 17.9033 8.77462 18.0816 9.30384 17.9647C9.83014 17.8477 10.2541 17.4559 10.412 16.9384C10.5699 16.4209 10.4383 15.8595 10.0641 15.4677L5.46476 10.497L34.4143 10.497C34.9552 10.5058 35.4552 10.2222 35.7271 9.75436C36.002 9.28947 36.002 8.71053 35.7271 8.24563C35.4552 7.77781 34.9552 7.49419 34.4143 7.50296L5.46476 7.50296L10.0641 2.53234C10.4383 2.14054 10.5699 1.57915 10.412 1.06162C10.2541 0.544088 9.83014 0.152285 9.30384 0.0353294C8.77462 -0.0816265 8.22492 0.0967315 7.86528 0.497305L-3.93402e-07 9Z" fill="black"/>
</svg>
