<svg width="20" height="20" viewBox="0 0 20 20" fill="none" xmlns="http://www.w3.org/2000/svg">
<path id="icon-workflows" d="M14.4444 0C13.8311 0 13.3333 0.497778 13.3333 1.11111V2.69748L6.6645 7.76259C6.65594 7.15661 6.16356 6.66667 5.55556 6.66667H1.11111C0.497778 6.66667 0 7.16444 0 7.77778V12.2222C0 12.8356 0.497778 13.3333 1.11111 13.3333H5.55556C6.16889 13.3333 6.66667 12.8356 6.66667 12.2222L13.3333 17.2222V18.8889C13.3333 19.5022 13.8311 20 14.4444 20H18.8889C19.5022 20 20 19.5022 20 18.8889V14.4444C20 13.8311 19.5022 13.3333 18.8889 13.3333H14.4444C13.8311 13.3333 13.3333 13.8311 13.3333 14.4444L7.40017 9.99566L13.3333 5.48828V5.55556C13.3333 6.16889 13.8311 6.66667 14.4444 6.66667H18.8889C19.5022 6.66667 20 6.16889 20 5.55556V1.11111C20 0.497778 19.5022 0 18.8889 0H14.4444Z" fill="black"/>
</svg>
