<svg width="11" height="18" viewBox="0 0 11 18" fill="none" xmlns="http://www.w3.org/2000/svg">
<path d="M5.58457 0.00657611C2.84384 -0.12713 0.517325 1.79347 0.0156749 4.36079C-0.0905278 4.9026 0.35781 5.39968 0.910424 5.39968C1.34604 5.39968 1.70287 5.08448 1.79287 4.65787C2.18168 2.80742 3.99701 1.47484 6.03106 1.86815C7.7609 2.20296 9.00853 3.83967 8.91043 5.59832C8.83303 6.99245 7.93528 7.87642 6.90296 8.89254C5.95703 9.82407 4.90924 10.855 4.54743 12.3643C4.40883 12.9394 4.82977 13.4999 5.42109 13.4999C5.8504 13.4999 6.19917 13.1915 6.30177 12.7739C6.55198 11.7623 7.31098 11.0146 8.1651 10.174C9.35673 9.00129 10.7067 7.67259 10.7157 5.42253C10.7256 2.95917 9.16313 0.823825 6.78167 0.192909C6.37733 0.0858062 5.9761 0.025677 5.58457 0.00657611ZM4.8656 16.2C4.6172 16.2 4.41559 16.4016 4.41559 16.65V17.55C4.41559 17.7984 4.6172 18 4.8656 18H5.76562C6.01403 18 6.21564 17.7984 6.21564 17.55V16.65C6.21564 16.4016 6.01403 16.2 5.76562 16.2H4.8656Z" fill="black"/>
</svg>
