<svg width="160" height="160" viewBox="0 0 160 160" fill="none" xmlns="http://www.w3.org/2000/svg">
<path d="M35.9375 18.5243V4.78088C35.9375 2.14056 33.8388 0 31.25 0C28.6612 0 26.5625 2.14056 26.5625 4.78088V18.5243C28.0916 18.2897 29.6569 18.1673 31.25 18.1673C32.8431 18.1673 34.4084 18.2897 35.9375 18.5243Z" fill="black"/>
<path d="M159.711 100.197L153.948 84.2158C153.231 82.2285 151.318 80.9591 149.247 81.0952L141.496 81.6051L137.887 74.161C137.048 72.4309 135.272 71.3849 133.383 71.5092L125.258 72.0437L99.6585 56.9693C102.548 43.7406 96.8928 29.5783 84.7756 22.443C82.0538 20.8402 79.1928 19.7106 76.2834 19.0142C79.5106 21.9184 82.3216 25.3775 84.5578 29.3281C88.9681 37.119 90.7547 45.9493 89.7247 54.8641C88.9972 61.1614 86.92 67.0907 83.6394 72.3273L86.1606 76.7812C87.6106 75.8234 88.9919 74.7401 90.2835 73.5305L148.893 108.043C150.25 108.842 151.909 108.897 153.314 108.188L157.39 106.133C159.537 105.05 160.538 102.49 159.711 100.197Z" fill="black"/>
<path d="M103.519 117.782L96.5562 114.27L97.0802 105.983C97.2021 104.057 96.1765 102.245 94.4802 101.39L87.1815 97.709L72.4015 71.5994C81.3893 61.6166 83.4343 46.4679 76.4384 34.1093C72.3946 26.9657 66.0487 22.0245 58.9087 19.6947C59.9684 20.6993 60.9802 21.7638 61.9365 22.8873C68.3452 30.4163 71.8749 40.0593 71.8749 50.0399C71.8749 59.0362 69.0934 67.5946 63.8312 74.7895C61.7721 77.6048 59.409 80.1094 56.7921 82.2716L90.0015 140.938C90.7852 142.322 92.1952 143.215 93.7593 143.318L98.2965 143.617C100.687 143.774 102.809 142.068 103.217 139.66L106.06 122.882C106.414 120.795 105.38 118.72 103.519 117.782V117.782Z" fill="black"/>
<path d="M62.5 50.0399C62.5 34.0622 50.9725 20.8312 35.9375 18.5243V32.51H37.3675C39.8916 32.51 42.0634 34.4883 42.1822 37.0598C42.3091 39.8053 40.1641 42.0717 37.5 42.0717H25.1325C22.6084 42.0717 20.4366 40.0934 20.3178 37.5219C20.1909 34.7764 22.3359 32.51 25 32.51H26.5625V18.5243C11.5275 20.8312 0 34.0622 0 50.0399C0 64.3105 9.1975 76.3866 21.875 80.4488V152.647C21.875 154.245 22.6584 155.738 23.9622 156.625L27.7453 159.197C29.7384 160.552 32.4128 160.157 33.9466 158.28L44.6344 145.199C45.9634 143.572 46.085 141.248 44.9334 139.486L40.625 132.895L45.1416 125.985C46.1913 124.379 46.1913 122.287 45.1416 120.681L40.625 113.771V80.4488C53.3025 76.3866 62.5 64.3105 62.5 50.0399Z" fill="black"/>
</svg>
