<svg width="160" height="160" viewBox="0 0 160 160" fill="none" xmlns="http://www.w3.org/2000/svg">
<path d="M61.6663 0H11.6663C5.23315 0 0 5.23315 0 11.6663V41.6663C0 48.1006 5.23315 53.3337 11.6663 53.3337H61.6663C68.1006 53.3337 73.3337 48.1006 73.3337 41.6663V11.6663C73.3337 5.23315 68.1006 0 61.6663 0Z" fill="black"/>
<path d="M61.6663 66.6663H11.6663C5.23315 66.6663 0 71.8994 0 78.3337V148.334C0 154.767 5.23315 160 11.6663 160H61.6663C68.1006 160 73.3337 154.767 73.3337 148.334V78.3337C73.3337 71.8994 68.1006 66.6663 61.6663 66.6663V66.6663Z" fill="black"/>
<path d="M148.334 106.666H98.3337C91.8994 106.666 86.6663 111.899 86.6663 118.334V148.334C86.6663 154.767 91.8994 160 98.3337 160H148.334C154.767 160 160 154.767 160 148.334V118.334C160 111.899 154.767 106.666 148.334 106.666V106.666Z" fill="black"/>
<path d="M148.334 0H98.3337C91.8994 0 86.6663 5.23315 86.6663 11.6663V81.6663C86.6663 88.1006 91.8994 93.3337 98.3337 93.3337H148.334C154.767 93.3337 160 88.1006 160 81.6663V11.6663C160 5.23315 154.767 0 148.334 0V0Z" fill="black"/>
</svg>
