<svg width="18" height="18" viewBox="0 0 18 18" fill="none" xmlns="http://www.w3.org/2000/svg">
<path id="icon-settings" d="M7.23456 0C6.80346 0 6.43493 0.304734 6.35213 0.727734L6.05155 2.27109C5.31287 2.55042 4.62984 2.94066 4.03006 3.43301L2.54999 2.92324C2.14229 2.78284 1.69372 2.95142 1.47772 3.32402L0.120689 5.67598C-0.0944109 6.04948 -0.016125 6.52365 0.308775 6.80625L1.4953 7.83809C1.43359 8.2173 1.39335 8.60336 1.39335 9C1.39335 9.39664 1.43359 9.7827 1.4953 10.1619L0.308775 11.1937C-0.016125 11.4763 -0.0944109 11.9505 0.120689 12.324L1.47772 14.676C1.69282 15.0495 2.14229 15.218 2.54999 15.0785L4.03006 14.5687C4.62964 15.0608 5.3132 15.4497 6.05155 15.7289L6.35213 17.2723C6.43493 17.6953 6.80346 18 7.23456 18H9.95213C10.3832 18 10.7518 17.6953 10.8346 17.2723L11.1351 15.7289C11.8738 15.4496 12.5569 15.0593 13.1566 14.567L14.6367 15.0768C15.0444 15.2172 15.493 15.0495 15.709 14.676L17.066 12.3223C17.2811 11.9488 17.2028 11.4763 16.8779 11.1937L15.6914 10.1619C15.7531 9.7827 15.7933 9.39664 15.7933 9C15.7933 8.60336 15.7531 8.2173 15.6914 7.83809L16.8779 6.80625C17.2028 6.52365 17.2811 6.04948 17.066 5.67598L15.709 3.32402C15.4939 2.95052 15.0444 2.78198 14.6367 2.92148L13.1566 3.43125C12.5571 2.93921 11.8735 2.55029 11.1351 2.27109L10.8346 0.727734C10.7518 0.304734 10.3832 0 9.95213 0H7.23456ZM8.59335 5.4C10.5814 5.4 12.1933 7.0119 12.1933 9C12.1933 10.9881 10.5814 12.6 8.59335 12.6C6.60525 12.6 4.99335 10.9881 4.99335 9C4.99335 7.0119 6.60525 5.4 8.59335 5.4Z" fill="black"/>
</svg>
