<svg width="24" height="24" viewBox="0 0 24 24" fill="none" xmlns="http://www.w3.org/2000/svg">
<path d="M16 3C15.7348 3.00003 15.4805 3.10539 15.2929 3.29292C15.1054 3.48045 15 3.73479 15 4V5.42773L9 9.98438C8.99587 9.72188 8.8887 9.47154 8.70161 9.28738C8.51452 9.10321 8.26252 8.99999 8 9H4C3.73479 9.00003 3.48045 9.10539 3.29292 9.29292C3.10539 9.48045 3.00003 9.73479 3 10V14C3.00003 14.2652 3.10539 14.5195 3.29292 14.7071C3.48045 14.8946 3.73479 15 4 15H8C8.26521 15 8.51955 14.8946 8.70708 14.7071C8.89461 14.5195 8.99997 14.2652 9 14L15 18.5V20C15 20.2652 15.1054 20.5195 15.2929 20.7071C15.4805 20.8946 15.7348 21 16 21H20C20.2652 21 20.5195 20.8946 20.7071 20.7071C20.8946 20.5195 21 20.2652 21 20V16C21 15.7348 20.8946 15.4805 20.7071 15.2929C20.5195 15.1054 20.2652 15 20 15H16C15.7348 15 15.4805 15.1054 15.2929 15.2929C15.1054 15.4805 15 15.7348 15 16L9.66016 11.9961L15 7.93945V8C15 8.26521 15.1054 8.51955 15.2929 8.70708C15.4805 8.89461 15.7348 8.99997 16 9H20C20.2652 8.99997 20.5195 8.89461 20.7071 8.70708C20.8946 8.51955 21 8.26521 21 8V4C21 3.73479 20.8946 3.48045 20.7071 3.29292C20.5195 3.10539 20.2652 3.00003 20 3H16ZM17 5H19V7H17V5ZM5 11H7V11.9785V13H5V11ZM17 17H19V19H17V17Z" fill="black"/>
</svg>
